<?xml version="1.0" encoding="UTF-8" standalone="no"?>
<svg
   xmlns:dc="http://purl.org/dc/elements/1.1/"
   xmlns:cc="http://creativecommons.org/ns#"
   xmlns:rdf="http://www.w3.org/1999/02/22-rdf-syntax-ns#"
   xmlns:svg="http://www.w3.org/2000/svg"
   xmlns="http://www.w3.org/2000/svg"
   xmlns:sodipodi="http://sodipodi.sourceforge.net/DTD/sodipodi-0.dtd"
   xmlns:inkscape="http://www.inkscape.org/namespaces/inkscape"
   width="211.78484"
   height="220.11989"
   viewBox="0 0 56.034736 58.240051"
   version="1.1"
   id="svg34"
   inkscape:version="1.0.1 (c497b03c, 2020-09-10)"
   sodipodi:docname="NSBE.svg">
  <defs
     id="defs28">
    <clipPath
       id="clip4">
      <path
         d="M 77.761719,251 H 104 v 32 H 77.761719 Z m 0,0"
         id="path803" />
    </clipPath>
    <clipPath
       id="clip1-9">
      <path
         d="m 647,254 h 33.5 v 60 H 647 Z m 0,0"
         id="path6834" />
    </clipPath>
    <clipPath
       id="clip2-4">
      <path
         d="m 554,326 h 8 v 9.71094 h -8 z m 0,0"
         id="path6837" />
    </clipPath>
    <clipPath
       id="clip3-3">
      <path
         d="m 586,326 h 7 v 9.71094 h -7 z m 0,0"
         id="path6840" />
    </clipPath>
    <clipPath
       id="clip4-8">
      <path
         d="m 669,323 h 11.5 v 11 H 669 Z m 0,0"
         id="path6843" />
    </clipPath>
    <clipPath
       id="clip5-6">
      <path
         d="m 436,249.83984 h 30 V 296 h -30 z m 0,0"
         id="path6846" />
    </clipPath>
    <clipPath
       id="clip6-1">
      <path
         d="m 438,289 h 30 v 46.71094 h -30 z m 0,0"
         id="path6849" />
    </clipPath>
    <clipPath
       id="clip7-6">
      <path
         d="M 407.14062,275 H 447 v 35 h -39.85938 z m 0,0"
         id="path6852" />
    </clipPath>
    <clipPath
       id="clip12">
      <path
         d="m 398,173.23828 h 18 V 194 h -18 z m 0,0"
         id="path12994" />
    </clipPath>
    <clipPath
       id="clip13">
      <path
         d="m 395,173.23828 h 24 V 197 h -24 z m 0,0"
         id="path12997" />
    </clipPath>
    <clipPath
       id="clip14">
      <path
         d="m 405,240 h 7 v 14.16016 h -7 z m 0,0"
         id="path13000" />
    </clipPath>
    <clipPath
       id="clip15">
      <path
         d="M 368.87891,193 H 394 v 24 h -25.12109 z m 0,0"
         id="path13003" />
    </clipPath>
    <clipPath
       id="clip16">
      <path
         d="M 368.87891,192 H 396 v 27 h -27.12109 z m 0,0"
         id="path13006" />
    </clipPath>
    <clipPath
       id="clip17">
      <path
         d="m 370,191 h 76.72266 v 63.16016 H 370 Z m 0,0"
         id="path13009" />
    </clipPath>
    <clipPath
       id="clip18">
      <path
         d="m 420,230 h 26.72266 v 24 H 420 Z m 0,0"
         id="path13012" />
    </clipPath>
    <clipPath
       id="clip19">
      <path
         d="m 418,228 h 28.72266 v 26.16016 H 418 Z m 0,0"
         id="path13015" />
    </clipPath>
  </defs>
  <sodipodi:namedview
     id="base"
     pagecolor="#00ffff"
     bordercolor="#666666"
     borderopacity="1.0"
     inkscape:pageopacity="0"
     inkscape:pageshadow="2"
     inkscape:zoom="0.73724643"
     inkscape:cx="130.89702"
     inkscape:cy="126.39791"
     inkscape:document-units="px"
     inkscape:current-layer="layer1"
     inkscape:document-rotation="0"
     showgrid="false"
     units="px"
     lock-margins="true"
     fit-margin-top="0.5"
     fit-margin-left="0.5"
     fit-margin-right="0.5"
     fit-margin-bottom="0.5"
     inkscape:window-width="1440"
     inkscape:window-height="874"
     inkscape:window-x="0"
     inkscape:window-y="26"
     inkscape:window-maximized="0" />
  <metadata
     id="metadata31">
    <rdf:RDF>
      <cc:Work
         rdf:about="">
        <dc:format>image/svg+xml</dc:format>
        <dc:type
           rdf:resource="http://purl.org/dc/dcmitype/StillImage" />
        <dc:title></dc:title>
      </cc:Work>
    </rdf:RDF>
  </metadata>
  <g
     inkscape:label="Layer 1"
     inkscape:groupmode="layer"
     id="layer1"
     transform="translate(-33.774452,-97.102125)">
    <g
       id="g14259"
       transform="matrix(2.0308583,0,0,2.0308583,-291.11575,-167.96604)">
      <g
         clip-path="url(#clip12)"
         clip-rule="nonzero"
         id="g13125"
         transform="matrix(0.35277778,0,0,0.35277778,29.909653,69.470624)">
        <path
           style="fill:#eb192e;fill-opacity:1;fill-rule:nonzero;stroke:none"
           d="m 403.46094,177.26953 c 0.4375,1.05469 0.28515,3.09375 0.3125,4.1875 0.008,-0.38281 0.30468,-0.64844 0.51172,-0.88672 0.85156,-0.98437 1.97265,-1.63281 2.66015,-2.73047 0.85547,-1.37109 1.59375,-2.77734 1.47656,-4.44531 2.15235,3.70313 4.83985,7.10156 6.23829,11.19922 0.75,2.19922 1.38281,4.86719 -0.16797,6.83594 -0.78907,1 -2.08203,1.77734 -3.4336,1.96093 0.82422,-2.40234 1.97657,-4.97265 1.39453,-7.59375 -0.21875,0.28125 -0.26953,0.44141 -0.38671,0.69532 -0.0586,0.125 -0.26563,0.28125 -0.34375,0.41406 -1.0586,1.75391 -2.69141,2.87109 -3.60938,4.625 0,-0.20703 0.0664,-0.46484 -0.0352,-0.58984 -1.55468,-1.85157 -1.21875,-4.26954 -1.82421,-6.38672 0,0.46875 0.11328,0.97656 -0.0586,1.37109 -0.52344,1.18359 -1.96484,1.69531 -2.25,3.12891 -0.1875,0.96093 0.0937,1.73047 0.29297,2.63281 -0.85547,-0.55859 -1.73437,-1.17188 -1.70703,-2.32813 -0.62891,0.85938 -0.13672,1.95313 -0.0625,2.9375 0.0156,0.21485 0.28516,0.5586 0.52734,0.78516 -1.72265,-1.19531 -3.125,-2.88281 -3.83203,-4.82422 -1.24609,-3.42187 2.01172,-5.5 3.73047,-8.10937 0.47656,-0.71875 0.42578,-1.9961 0.56641,-2.87891"
           id="path13123" />
      </g>
      <g
         clip-path="url(#clip13)"
         clip-rule="nonzero"
         id="g13129"
         transform="matrix(0.35277778,0,0,0.35277778,29.909653,69.470624)">
        <path
           style="fill:none;stroke:#000000;stroke-width:0.62;stroke-linecap:butt;stroke-linejoin:miter;stroke-miterlimit:4;stroke-opacity:1"
           d="M -0.0010625,0.00106875 C 0.436438,-1.053619 0.284094,-3.092681 0.311438,-4.186431 0.31925,-3.803619 0.616125,-3.537994 0.823156,-3.299712 1.674719,-2.315337 2.795813,-1.6669 3.483313,-0.569244 4.338781,0.80185 5.077063,2.2081 4.959875,3.876069 7.112219,0.172944 9.799719,-3.225494 11.198156,-7.32315 c 0.75,-2.199219 1.382813,-4.867187 -0.167968,-6.835937 -0.789063,-1 -2.082032,-1.777344 -3.433594,-1.960938 0.824219,2.402344 1.976562,4.972656 1.394531,7.59375 -0.21875,-0.28125 -0.269531,-0.441406 -0.386719,-0.695312 -0.058593,-0.125 -0.265625,-0.28125 -0.34375,-0.414063 -1.058593,-1.753906 -2.691406,-2.871094 -3.609375,-4.625 0,0.207031 0.066407,0.464844 -0.035156,0.589844 -1.554687,1.851562 -1.21875,4.269531 -1.824219,6.386719 0,-0.46875 0.113282,-0.976563 -0.058593,-1.371094 -0.523438,-1.183594 -1.964844,-1.695313 -2.25,-3.128906 -0.1875,-0.960938 0.09375,-1.730469 0.292968,-2.632813 -0.8554685,0.558594 -1.734375,1.171875 -1.707031,2.328125 -0.628906,-0.859375 -0.136719,-1.953125 -0.0625,-2.9375 0.015625,-0.214844 0.285156,-0.558594 0.527344,-0.785156 -1.722656,1.195312 -3.125,2.882812 -3.832031,4.824219 -1.246094,3.421875 2.011718,5.5 3.730468,8.109375 0.4765628,0.71875 0.425782,1.996093 0.5664065,2.87890575 z m 0,0"
           transform="matrix(1,0,0,-1,403.462,177.2706)"
           id="path13127" />
      </g>
      <path
         style="fill:#000000;fill-opacity:1;fill-rule:nonzero;stroke:none;stroke-width:0.352778"
         d="m 171.31291,138.15894 h 4.6743 v 0.49196 h -4.6743 z m 0,0"
         id="path13131" />
      <path
         style="fill:#000000;fill-opacity:1;fill-rule:nonzero;stroke:none;stroke-width:0.352778"
         d="m 173.52742,138.92513 h 3.41753 c 0.43684,0 0.40928,0.68351 0.0537,0.68351 h -6.5884 c -0.57464,-0.0276 -0.49196,-0.68351 0,-0.68351 z m 0,0"
         id="path13133" />
      <path
         style="fill:#000000;fill-opacity:1;fill-rule:nonzero;stroke:none;stroke-width:0.352778"
         d="m 176.88983,139.88148 h -6.45197 v 0.41066 h 6.45197 z m 0,0"
         id="path13135" />
      <path
         style="fill:#000000;fill-opacity:1;fill-rule:nonzero;stroke:none;stroke-width:0.352778"
         d="m 174.64776,142.50665 c 0.49196,0.0275 0.32798,-0.0827 1.03904,0.57464 v -1.6688 l 0.8475,-0.8475 h -2.78778 l -2.96691,-0.0138 0.84749,0.84749 v 1.6688 c 0.71107,-0.65732 0.54708,-0.54708 1.03904,-0.57463 z m 0,0"
         id="path13137" />
      <g
         clip-path="url(#clip14)"
         clip-rule="nonzero"
         id="g13141"
         transform="matrix(0.35277778,0,0,0.35277778,29.909653,69.470624)">
        <path
           style="fill:#000000;fill-opacity:1;fill-rule:nonzero;stroke:none"
           d="m 407.10547,253.29687 c 0.0781,1.16407 2.40234,1.16407 2.40234,-0.0742 l 0.15235,-4.03125 h 0.54296 l 1.00782,-8.29297 h -5.77344 l 0.96875,8.29297 h 0.50391 z m 0,0"
           id="path13139" />
      </g>
      <g
         clip-path="url(#clip15)"
         clip-rule="nonzero"
         id="g13145"
         transform="matrix(0.35277778,0,0,0.35277778,29.909653,69.470624)">
        <path
           style="fill:#fff000;fill-opacity:1;fill-rule:nonzero;stroke:none"
           d="m 392.69141,209.12109 -9.30079,-6.19922 3.5625,0.3125 -17.98046,-9.30078 12.71093,9.76563 -3.71875,-0.46485 14.25782,9.60938 -5.26954,-0.46484 6.51172,4.33984 z m 0,0"
           id="path13143" />
      </g>
      <g
         clip-path="url(#clip16)"
         clip-rule="nonzero"
         id="g13149"
         transform="matrix(0.35277778,0,0,0.35277778,29.909653,69.470624)">
        <path
           style="fill:none;stroke:#000000;stroke-width:0.31;stroke-linecap:butt;stroke-linejoin:miter;stroke-miterlimit:4;stroke-opacity:1"
           d="M 0.00190625,0.00190625 -9.298875,6.201125 l 3.5625,-0.3125 -17.980469,9.300781 12.710938,-9.765625 -3.71875,0.464844 14.257812,-9.609375 -5.269531,0.464844 6.511719,-4.339844 z m 0,0"
           transform="matrix(1,0,0,-1,392.6895,209.123)"
           id="path13147" />
      </g>
      <path
         style="fill:#fff000;fill-opacity:1;fill-rule:nonzero;stroke:none;stroke-width:0.352778"
         d="m 172.87147,147.2912 -6.07026,5.24895 1.64125,0.2191 -4.53926,2.84289 0.81993,0.16399 -3.33485,2.84427 5.30407,-2.84427 -1.03904,-0.0537 5.19382,-2.95314 h -1.20302 l 5.14008,-3.38997 6.17912,-5.41431 h -0.98392 l 3.60908,-3.11575 -0.93017,0.0537 3.99218,-3.28111 -5.9049,3.17224 1.09278,-0.16399 -5.14008,3.28111 1.09416,-0.11024 z m 0,0"
         id="path13151" />
      <g
         clip-path="url(#clip17)"
         clip-rule="nonzero"
         id="g13155"
         transform="matrix(0.35277778,0,0,0.35277778,29.909653,69.470624)">
        <path
           style="fill:none;stroke:#000000;stroke-width:0.31;stroke-linecap:butt;stroke-linejoin:miter;stroke-miterlimit:4;stroke-opacity:1"
           d="m 0.00149375,-7.5e-4 -17.20703175,-14.878906 4.652344,-0.621094 -12.867187,-8.058594 2.324218,-0.464843 -9.453125,-8.0625 15.035157,8.0625 -2.945313,0.152343 14.722656,8.371094 H -9.146944 L 5.423369,-5.891375 22.938994,9.456281 H 20.149931 L 30.3804,18.288313 27.743681,18.135969 39.060087,27.43675 22.321806,18.444563 25.419462,18.909406 10.84915,9.608625 l 3.101562,0.3125 z m 0,0"
           transform="matrix(1,0,0,-1,405.2446,220.593)"
           id="path13153" />
      </g>
      <g
         clip-path="url(#clip18)"
         clip-rule="nonzero"
         id="g13159"
         transform="matrix(0.35277778,0,0,0.35277778,29.909653,69.470624)">
        <path
           style="fill:#fff000;fill-opacity:1;fill-rule:nonzero;stroke:none"
           d="m 421.98437,230.04687 7.12891,5.58204 -3.875,-0.15625 12.24609,8.67968 h -3.41015 l 12.55469,9.45703 -19.21875,-9.45703 h 4.03125 l -11.00782,-6.82031 z m 0,0"
           id="path13157" />
      </g>
      <g
         clip-path="url(#clip19)"
         clip-rule="nonzero"
         id="g13163"
         transform="matrix(0.35277778,0,0,0.35277778,29.909653,69.470624)">
        <path
           style="fill:none;stroke:#000000;stroke-width:0.31;stroke-linecap:butt;stroke-linejoin:miter;stroke-miterlimit:4;stroke-opacity:1"
           d="m -2.25e-4,0.001125 7.128906,-5.582031 -3.875,0.15625 12.246094,-8.679688 h -3.410156 l 12.554687,-9.457031 -19.21875,9.457031 h 4.03125 l -11.007812,6.820313 z m 0,0"
           transform="matrix(1,0,0,-1,421.9846,230.048)"
           id="path13161" />
      </g>
      <path
         style="fill:#2eb357;fill-opacity:1;fill-rule:nonzero;stroke:none;stroke-width:0.352778"
         d="m 166.9652,153.57919 v 0.46439 h 3.33623 v -0.49196 c -0.32797,0 -0.90262,-0.21772 -0.95774,-0.54708 -0.0551,-0.32797 0,-6.28799 0,-6.28799 l 8.91315,7.13549 h 2.68029 v -0.32798 l -1.20303,-0.79237 v -9.15844 c 0,-0.35554 0.51814,-0.49334 0.79237,-0.49334 v -0.27285 h -3.25354 v 0.27285 c 0.38309,0 0.84749,0.19155 0.84749,0.6022 0,0.41066 0.0275,6.01514 0.0275,6.01514 h -0.16399 l -8.69542,-6.89019 h -2.65134 v 0.3831 l 1.17547,1.31189 v 8.47631 c 0,0.40928 -0.62839,0.62839 -0.8475,0.60083"
         id="path13165" />
      <path
         style="fill:#ffffff;fill-opacity:1;fill-rule:nonzero;stroke:none;stroke-width:0.352778"
         d="m 171.90822,143.7083 c -0.0221,0.88194 0.92604,1.20578 1.37804,1.33394 0.45199,0.12954 0.98943,0.0648 1.18373,0.3886 0.19431,0.32247 0.0427,0.4079 -0.1502,0.49472 -0.19431,0.0854 -1.14102,-0.0648 -1.7005,-0.43132 -0.56086,-0.36519 -0.64079,-0.45889 -0.8406,-0.60221 -0.15021,-0.10748 -0.23703,0.0221 -0.12816,0.10749 0.10748,0.0868 0.79237,1.079 0.8599,1.22783 0.0648,0.13919 0.15158,0.0427 0.15158,-0.0648 0,-0.10748 -0.0427,-0.26871 0.1502,-0.1943 0.20533,0.0799 1.12035,0.25907 1.42076,0.25907 0.30179,0 1.16306,-0.15158 1.33532,-0.77583 0.17226,-0.62426 -0.47405,-1.16307 -0.96876,-1.27056 -0.49471,-0.10748 -1.18374,-0.23702 -1.42076,-0.36517 -0.23702,-0.12954 -0.27974,-0.56087 0.27975,-0.56087 0.55948,0 1.51033,0.49334 1.78731,0.73312 0.16123,0.13918 0.32246,0.0207 0.23564,-0.0648 -0.0854,-0.0868 -0.85989,-0.8406 -0.92466,-0.96876 -0.0648,-0.12954 -0.21497,-0.0648 -0.1943,0.0854 0.0221,0.15159 -0.32246,0.10749 -0.53744,0.0221 -0.21635,-0.0868 -0.59393,-0.31144 -1.31464,-0.011 -0.51539,0.21497 -0.54846,0.50574 -0.60221,0.65733"
         id="path13167" />
      <path
         style="fill:none;stroke:#ffffff;stroke-width:0.382764;stroke-linecap:butt;stroke-linejoin:miter;stroke-miterlimit:4;stroke-opacity:1"
         d="m 171.90822,143.70829 c -0.022,0.88195 0.92605,1.20579 1.37804,1.33395 0.452,0.12953 0.98943,0.0648 1.18374,0.3886 0.1943,0.32246 0.0427,0.4079 -0.15021,0.49472 -0.1943,0.0854 -1.14101,-0.0648 -1.7005,-0.43133 -0.56086,-0.36518 -0.64079,-0.45888 -0.8406,-0.6022 -0.15021,-0.10749 -0.23702,0.0221 -0.12816,0.10749 0.10749,0.0868 0.79237,1.079 0.8599,1.22783 0.0648,0.13918 0.15158,0.0427 0.15158,-0.0648 0,-0.10749 -0.0427,-0.26872 0.15021,-0.1943 0.20533,0.0799 1.12034,0.25907 1.42076,0.25907 0.30179,0 1.16306,-0.15159 1.33531,-0.77584 0.17226,-0.62425 -0.47404,-1.16306 -0.96876,-1.27055 -0.49471,-0.10749 -1.18373,-0.23702 -1.42075,-0.36518 -0.23703,-0.12953 -0.27975,-0.56086 0.27974,-0.56086 0.55948,0 1.51033,0.49334 1.78731,0.73312 0.16123,0.13918 0.32246,0.0207 0.23565,-0.0648 -0.0854,-0.0868 -0.8599,-0.84061 -0.92467,-0.96876 -0.0648,-0.12954 -0.21497,-0.0648 -0.1943,0.0854 0.0221,0.15158 -0.32246,0.10748 -0.53743,0.022 -0.21636,-0.0868 -0.59394,-0.31143 -1.31465,-0.011 -0.51539,0.21497 -0.54846,0.50574 -0.60221,0.65732 z m 0,0"
         id="path13169" />
      <path
         style="fill:#ffffff;fill-opacity:1;fill-rule:nonzero;stroke:none;stroke-width:0.352778"
         d="m 171.76766,147.12032 v -0.26872 l 3.05787,-0.0441 c 0.99081,0 0.88332,1.28157 0.4203,1.28157 0.89297,0.12954 0.91502,1.90583 -0.011,1.90583 h -3.38032 v -0.20533 c 0,0 0.45199,-0.11851 0.59255,-0.32246 v -1.91547 c 0,-0.28112 -0.39825,-0.42031 -0.67937,-0.43133"
         id="path13171" />
      <path
         style="fill:none;stroke:#ffffff;stroke-width:0.382764;stroke-linecap:butt;stroke-linejoin:miter;stroke-miterlimit:4;stroke-opacity:1"
         d="m 171.76766,147.12032 v -0.26872 l 3.05787,-0.0441 c 0.99081,0 0.88332,1.28158 0.4203,1.28158 0.89297,0.12953 0.91502,1.90582 -0.011,1.90582 h -3.38033 v -0.20532 c 0,0 0.45199,-0.11851 0.59255,-0.32246 v -1.91548 c 0,-0.28112 -0.39825,-0.4203 -0.67937,-0.43132 z m 0,0"
         id="path13173" />
      <path
         style="fill:#ffffff;fill-opacity:1;fill-rule:nonzero;stroke:#ffffff;stroke-width:0.382764;stroke-linecap:butt;stroke-linejoin:miter;stroke-miterlimit:4;stroke-opacity:1"
         d="m 173.4158,148.49836 v 1.03353 h 0.93568 c 0.56087,0 0.40928,-1.00184 0.0427,-1.03353 -0.36518,-0.0317 -0.9784,-0.0427 -0.9784,-0.0427 z m 0,0"
         id="path13175" />
      <path
         style="fill:#ffffff;fill-opacity:1;fill-rule:nonzero;stroke:none;stroke-width:0.352778"
         d="m 173.40477,148.06703 v -0.87092 c 0,0 -0.12954,-0.0152 0.58153,0 0.53744,0.011 0.55949,0.85025 0.0207,0.86127 -0.32246,0.006 -0.60221,0.01 -0.60221,0.01"
         id="path13177" />
      <path
         style="fill:none;stroke:#ffffff;stroke-width:0.382764;stroke-linecap:butt;stroke-linejoin:miter;stroke-miterlimit:4;stroke-opacity:1"
         d="m 173.40478,148.06703 v -0.87092 c 0,0 -0.12954,-0.0152 0.58153,0 0.53743,0.011 0.55948,0.85025 0.0207,0.86128 -0.32246,0.006 -0.6022,0.01 -0.6022,0.01 z m 0,0"
         id="path13179" />
      <path
         style="fill:#ffffff;fill-opacity:1;fill-rule:nonzero;stroke:#ffffff;stroke-width:0.382764;stroke-linecap:butt;stroke-linejoin:miter;stroke-miterlimit:4;stroke-opacity:1"
         d="m 171.83243,150.66188 h 3.17638 l 0.73174,0.86127 -0.20395,0.20533 -0.90537,-0.72209 h -1.03215 c -0.15159,-0.0221 -0.14056,0.0331 -0.14056,0.0965 v 0.94809 h 0.4203 l 0.6022,-0.49472 v 1.37804 l -0.59118,-0.4644 -0.43132,0.011 v 1.08727 h 0.97978 c 0.17225,0 1.0542,-0.452 1.37804,-0.87092 l 0.25769,0.13918 -0.74276,1.03353 h -3.46577 v -0.39825 l 0.58016,-0.37621 v -1.64813 l -0.61323,-0.62425 z m 0,0"
         id="path13181" />
      <path
         style="fill:#000000;fill-opacity:1;fill-rule:nonzero;stroke:none;stroke-width:0.352778"
         d="m 171.90822,143.7083 c -0.0221,0.88194 0.92604,1.20578 1.37804,1.33394 0.45199,0.12954 0.98943,0.0648 1.18373,0.3886 0.19431,0.32247 0.0427,0.4079 -0.1502,0.49472 -0.19431,0.0854 -1.14102,-0.0648 -1.7005,-0.43132 -0.56086,-0.36519 -0.64079,-0.45889 -0.8406,-0.60221 -0.15021,-0.10748 -0.23703,0.0221 -0.12816,0.10749 0.10748,0.0868 0.79237,1.079 0.8599,1.22783 0.0648,0.13919 0.15158,0.0427 0.15158,-0.0648 0,-0.10748 -0.0427,-0.26871 0.1502,-0.1943 0.20533,0.0799 1.12035,0.25907 1.42076,0.25907 0.30179,0 1.16306,-0.15158 1.33532,-0.77583 0.17226,-0.62426 -0.47405,-1.16307 -0.96876,-1.27056 -0.49471,-0.10748 -1.18374,-0.23702 -1.42076,-0.36517 -0.23702,-0.12954 -0.27974,-0.56087 0.27975,-0.56087 0.55948,0 1.51033,0.49334 1.78731,0.73312 0.16123,0.13918 0.32246,0.0207 0.23564,-0.0648 -0.0854,-0.0868 -0.85989,-0.8406 -0.92466,-0.96876 -0.0648,-0.12954 -0.21497,-0.0648 -0.1943,0.0854 0.0221,0.15159 -0.32246,0.10749 -0.53744,0.0221 -0.21635,-0.0868 -0.59393,-0.31144 -1.31464,-0.011 -0.51539,0.21497 -0.54846,0.50574 -0.60221,0.65733"
         id="path13183" />
      <path
         style="fill:#000000;fill-opacity:1;fill-rule:nonzero;stroke:none;stroke-width:0.352778"
         d="m 171.76766,147.12032 v -0.26872 l 3.05787,-0.0441 c 0.99081,0 0.88332,1.28157 0.4203,1.28157 0.89297,0.12954 0.91502,1.90583 -0.011,1.90583 h -3.38032 v -0.20533 c 0,0 0.45199,-0.11851 0.59255,-0.32246 v -1.91547 c 0,-0.28112 -0.39825,-0.42031 -0.67937,-0.43133"
         id="path13185" />
      <path
         style="fill:#2eb357;fill-opacity:1;fill-rule:nonzero;stroke:none;stroke-width:0.352778"
         d="m 173.41579,148.49836 v 1.03353 h 0.93569 c 0.56086,0 0.40928,-1.00184 0.0427,-1.03353 -0.36518,-0.0317 -0.97841,-0.0427 -0.97841,-0.0427 z m 0,0"
         id="path13187" />
      <path
         style="fill:#2eb357;fill-opacity:1;fill-rule:nonzero;stroke:none;stroke-width:0.352778"
         d="m 173.40477,148.06703 v -0.87092 c 0,0 -0.12954,-0.0152 0.58153,0 0.53744,0.011 0.55949,0.85025 0.0207,0.86127 -0.32246,0.006 -0.60221,0.01 -0.60221,0.01"
         id="path13189" />
      <path
         style="fill:#000000;fill-opacity:1;fill-rule:nonzero;stroke:none;stroke-width:0.352778"
         d="m 171.83243,150.66188 h 3.17638 l 0.73174,0.86127 -0.20395,0.20533 -0.90538,-0.72209 h -1.03215 c -0.15158,-0.0221 -0.14055,0.0331 -0.14055,0.0965 v 0.94809 h 0.4203 l 0.6022,-0.49472 v 1.37804 l -0.59118,-0.46439 -0.43132,0.011 v 1.08727 h 0.97978 c 0.17225,0 1.0542,-0.45199 1.37804,-0.87092 l 0.25769,0.13919 -0.74276,1.03353 h -3.46577 v -0.39826 l 0.58016,-0.37621 v -1.64811 l -0.61323,-0.62425 z m 0,0"
         id="path13191" />
      <path
         style="fill:#000000;fill-opacity:1;fill-rule:nonzero;stroke:none;stroke-width:0.352778"
         d="m 177.12961,157.46112 c 0.15572,0 0.38447,0.0262 0.38447,-0.19706 0,-0.17088 -0.14056,-0.19155 -0.27561,-0.19155 h -0.31419 v 0.38861 z m 0.51676,0.61323 h -0.16123 l -0.31419,-0.50574 h -0.24667 v 0.50574 h -0.13505 v -1.0983 h 0.48094 c 0.28939,0 0.38861,0.10887 0.38861,0.29076 0,0.21498 -0.15021,0.29629 -0.34452,0.3018 z m 0.33487,-0.54984 c 0,-0.47818 -0.34865,-0.85301 -0.82545,-0.85301 -0.48094,0 -0.83233,0.37483 -0.83233,0.85301 0,0.48231 0.35139,0.85576 0.83233,0.85576 0.4768,0 0.82545,-0.37345 0.82545,-0.85576 m -1.81212,0 c 0,-0.54157 0.44097,-0.98254 0.98667,-0.98254 0.54157,0 0.98116,0.44097 0.98116,0.98254 0,0.54432 -0.43959,0.98668 -0.98116,0.98668 -0.5457,0 -0.98667,-0.44236 -0.98667,-0.98668"
         id="path13193" />
    </g>
  </g>
</svg>
